<svg xmlns="http://www.w3.org/2000/svg" xmlns:xlink="http://www.w3.org/1999/xlink" width="3000" zoomAndPan="magnify" viewBox="0 0 2250 2250.000011" height="3000" preserveAspectRatio="xMidYMid meet" version="1.2"><defs><clipPath id="b62058deac"><path d="M 0.5 0 L 2249.5 0 L 2249.5 2249 L 0.5 2249 Z M 0.5 0 "/></clipPath></defs><g id="6c25f26938"><g clip-rule="nonzero" clip-path="url(#b62058deac)"><path style=" stroke:none;fill-rule:nonzero;fill:#ffffff;fill-opacity:1;" d="M 0.5 0 L 2249.5 0 L 2249.5 2249 L 0.5 2249 Z M 0.5 0 "/><path style=" stroke:none;fill-rule:nonzero;fill:#ffffff;fill-opacity:1;" d="M 0.5 0 L 2249.5 0 L 2249.5 2249 L 0.5 2249 Z M 0.5 0 "/></g><g style="fill:#0e1d27;fill-opacity:1;"><g transform="translate(54.544211, 1234.436945)"><path style="stroke:none" d="M 159.421875 0 L 34.234375 0 C 30.097656 0 27.109375 -0.921875 25.265625 -2.765625 C 23.421875 -4.617188 22.5 -7.609375 22.5 -11.734375 L 22.5 -223 C 22.5 -227.125 23.421875 -230.109375 25.265625 -231.953125 C 27.109375 -233.804688 30.097656 -234.734375 34.234375 -234.734375 L 138.234375 -234.734375 C 159.535156 -234.734375 175.289062 -230.65625 185.5 -222.5 C 195.71875 -214.351562 200.828125 -201.800781 200.828125 -184.84375 L 200.828125 -169.203125 C 200.828125 -160.078125 199.25 -152.632812 196.09375 -146.875 C 192.945312 -141.113281 188.113281 -136.820312 181.59375 -134 C 195.5 -132.6875 205.820312 -127.898438 212.5625 -119.640625 C 219.300781 -111.390625 222.671875 -99.328125 222.671875 -83.453125 L 222.671875 -53.46875 C 222.671875 -35.207031 217.507812 -21.726562 207.1875 -13.03125 C 196.863281 -4.34375 180.941406 0 159.421875 0 Z M 95.84375 -179.3125 L 95.84375 -144.09375 L 123.5625 -144.09375 C 127.6875 -144.09375 130.78125 -145.179688 132.84375 -147.359375 C 134.914062 -149.535156 135.953125 -152.796875 135.953125 -157.140625 L 135.953125 -166.265625 C 135.953125 -170.609375 134.914062 -173.867188 132.84375 -176.046875 C 130.78125 -178.222656 127.6875 -179.3125 123.5625 -179.3125 Z M 95.84375 -93.890625 L 95.84375 -55.421875 L 138.234375 -55.421875 C 142.359375 -55.421875 145.453125 -56.503906 147.515625 -58.671875 C 149.585938 -60.847656 150.625 -64.113281 150.625 -68.46875 L 150.625 -81.171875 C 150.625 -85.523438 149.585938 -88.734375 147.515625 -90.796875 C 145.453125 -92.859375 142.359375 -93.890625 138.234375 -93.890625 Z M 95.84375 -93.890625 "/></g></g><g style="fill:#0e1d27;fill-opacity:1;"><g transform="translate(290.909158, 1234.436945)"><path style="stroke:none" d="M 185.5 0 L 34.234375 0 C 30.097656 0 27.109375 -0.921875 25.265625 -2.765625 C 23.421875 -4.617188 22.5 -7.609375 22.5 -11.734375 L 22.5 -223 C 22.5 -227.125 23.421875 -230.109375 25.265625 -231.953125 C 27.109375 -233.804688 30.097656 -234.734375 34.234375 -234.734375 L 185.5 -234.734375 C 189.632812 -234.734375 192.625 -233.804688 194.46875 -231.953125 C 196.3125 -230.109375 197.234375 -227.125 197.234375 -223 L 197.234375 -184.84375 C 197.234375 -180.71875 196.3125 -177.726562 194.46875 -175.875 C 192.625 -174.03125 189.632812 -173.109375 185.5 -173.109375 L 95.515625 -173.109375 L 95.515625 -148.015625 L 159.09375 -148.015625 C 163.226562 -148.015625 166.21875 -147.085938 168.0625 -145.234375 C 169.90625 -143.390625 170.828125 -140.40625 170.828125 -136.28125 L 170.828125 -101.390625 C 170.828125 -97.265625 169.90625 -94.273438 168.0625 -92.421875 C 166.21875 -90.578125 163.226562 -89.65625 159.09375 -89.65625 L 95.515625 -89.65625 L 95.515625 -61.609375 L 185.5 -61.609375 C 189.632812 -61.609375 192.625 -60.6875 194.46875 -58.84375 C 196.3125 -57 197.234375 -54.007812 197.234375 -49.875 L 197.234375 -11.734375 C 197.234375 -7.609375 196.3125 -4.617188 194.46875 -2.765625 C 192.625 -0.921875 189.632812 0 185.5 0 Z M 185.5 0 "/></g></g><g style="fill:#0e1d27;fill-opacity:1;"><g transform="translate(504.126677, 1234.436945)"><path style="stroke:none" d="M 133.34375 0 L 80.53125 0 C 76.394531 0 73.40625 -0.921875 71.5625 -2.765625 C 69.71875 -4.617188 68.796875 -7.609375 68.796875 -11.734375 L 68.796875 -171.8125 L 20.859375 -171.8125 C 16.734375 -171.8125 13.742188 -172.734375 11.890625 -174.578125 C 10.046875 -176.429688 9.125 -179.421875 9.125 -183.546875 L 9.125 -223 C 9.125 -227.125 10.046875 -230.109375 11.890625 -231.953125 C 13.742188 -233.804688 16.734375 -234.734375 20.859375 -234.734375 L 193 -234.734375 C 197.132812 -234.734375 200.125 -233.804688 201.96875 -231.953125 C 203.8125 -230.109375 204.734375 -227.125 204.734375 -223 L 204.734375 -183.546875 C 204.734375 -179.421875 203.8125 -176.429688 201.96875 -174.578125 C 200.125 -172.734375 197.132812 -171.8125 193 -171.8125 L 145.078125 -171.8125 L 145.078125 -11.734375 C 145.078125 -7.609375 144.148438 -4.617188 142.296875 -2.765625 C 140.453125 -0.921875 137.46875 0 133.34375 0 Z M 133.34375 0 "/></g></g><g style="fill:#0e1d27;fill-opacity:1;"><g transform="translate(716.366152, 1234.436945)"><path style="stroke:none" d="M 221.359375 -61.609375 C 221.359375 -51.617188 219.890625 -42.546875 216.953125 -34.390625 C 214.023438 -26.242188 208.8125 -19.289062 201.3125 -13.53125 C 193.8125 -7.769531 183.488281 -3.257812 170.34375 0 C 157.195312 3.257812 140.515625 4.890625 120.296875 4.890625 C 100.085938 4.890625 83.351562 3.257812 70.09375 0 C 56.832031 -3.257812 46.453125 -7.769531 38.953125 -13.53125 C 31.460938 -19.289062 26.25 -26.242188 23.3125 -34.390625 C 20.375 -42.546875 18.90625 -51.617188 18.90625 -61.609375 L 18.90625 -172.78125 C 18.90625 -182.78125 20.375 -191.851562 23.3125 -200 C 26.25 -208.15625 31.460938 -215.164062 38.953125 -221.03125 C 46.453125 -226.90625 56.832031 -231.472656 70.09375 -234.734375 C 83.351562 -237.992188 100.085938 -239.625 120.296875 -239.625 C 140.515625 -239.625 157.195312 -237.992188 170.34375 -234.734375 C 183.488281 -231.472656 193.8125 -226.90625 201.3125 -221.03125 C 208.8125 -215.164062 214.023438 -208.15625 216.953125 -200 C 219.890625 -191.851562 221.359375 -182.78125 221.359375 -172.78125 Z M 92.921875 -73.359375 C 92.921875 -69.003906 94.546875 -65.359375 97.796875 -62.421875 C 101.054688 -59.492188 108.554688 -58.03125 120.296875 -58.03125 C 132.035156 -58.03125 139.535156 -59.492188 142.796875 -62.421875 C 146.054688 -65.359375 147.6875 -69.003906 147.6875 -73.359375 L 147.6875 -161.046875 C 147.6875 -165.179688 146.054688 -168.710938 142.796875 -171.640625 C 139.535156 -174.578125 132.035156 -176.046875 120.296875 -176.046875 C 108.554688 -176.046875 101.054688 -174.578125 97.796875 -171.640625 C 94.546875 -168.710938 92.921875 -165.179688 92.921875 -161.046875 Z M 92.921875 -73.359375 "/></g></g><g style="fill:#0e1d27;fill-opacity:1;"><g transform="translate(1032.773813, 1208.716434)"><path style="stroke:none" d="M 75.453125 -196.390625 L 133.734375 -196.390625 L 206.15625 0 L 155.625 0 L 142.15625 -38.734375 L 67.03125 -38.734375 L 53.5625 0 L 2.6875 0 Z M 127 -81.515625 L 104.421875 -146.53125 L 81.859375 -81.515625 Z M 127 -81.515625 "/></g></g><g style="fill:#0e1d27;fill-opacity:1;"><g transform="translate(1241.629426, 1208.716434)"><path style="stroke:none" d="M 168.765625 -144.84375 C 184.929688 -144.84375 197.222656 -139.898438 205.640625 -130.015625 C 214.066406 -120.140625 218.28125 -107.117188 218.28125 -90.953125 L 218.28125 0 L 174.828125 0 L 174.828125 -88.59375 C 174.828125 -94.207031 173.421875 -98.585938 170.609375 -101.734375 C 167.804688 -104.878906 163.820312 -106.453125 158.65625 -106.453125 C 153.71875 -106.453125 149.785156 -104.878906 146.859375 -101.734375 C 143.941406 -98.585938 142.484375 -94.207031 142.484375 -88.59375 L 142.484375 0 L 99.03125 0 L 99.03125 -88.59375 C 99.03125 -94.207031 97.625 -98.585938 94.8125 -101.734375 C 92.007812 -104.878906 88.03125 -106.453125 82.875 -106.453125 C 77.925781 -106.453125 73.992188 -104.878906 71.078125 -101.734375 C 68.160156 -98.585938 66.703125 -94.207031 66.703125 -88.59375 L 66.703125 0 L 23.25 0 L 23.25 -100.046875 C 23.25 -104.316406 21.113281 -106.453125 16.84375 -106.453125 L 9.09375 -106.453125 L 9.09375 -141.140625 C 12.457031 -142.265625 16.101562 -143.160156 20.03125 -143.828125 C 23.96875 -144.503906 28.742188 -144.84375 34.359375 -144.84375 C 45.585938 -144.84375 54.125 -141.023438 59.96875 -133.390625 C 68.269531 -141.023438 79.269531 -144.84375 92.96875 -144.84375 C 101.507812 -144.84375 108.976562 -143.382812 115.375 -140.46875 C 121.769531 -137.550781 127.101562 -133.507812 131.375 -128.34375 C 135.414062 -133.507812 140.523438 -137.550781 146.703125 -140.46875 C 152.878906 -143.382812 160.234375 -144.84375 168.765625 -144.84375 Z M 168.765625 -144.84375 "/></g></g><g style="fill:#0e1d27;fill-opacity:1;"><g transform="translate(1478.44479, 1208.716434)"><path style="stroke:none" d="M 105.4375 -144.84375 C 124.75 -144.84375 139.679688 -137.992188 150.234375 -124.296875 C 160.796875 -110.597656 166.078125 -92.519531 166.078125 -70.0625 C 166.078125 -47.601562 160.796875 -29.582031 150.234375 -16 C 139.679688 -2.414062 124.75 4.375 105.4375 4.375 C 89.9375 4.375 77.023438 -0.113281 66.703125 -9.09375 L 66.703125 70.0625 L 23.25 70.0625 L 23.25 -100.046875 C 23.25 -104.316406 21.113281 -106.453125 16.84375 -106.453125 L 9.09375 -106.453125 L 9.09375 -141.140625 C 12.457031 -142.265625 16.101562 -143.160156 20.03125 -143.828125 C 23.96875 -144.503906 28.742188 -144.84375 34.359375 -144.84375 C 40.867188 -144.84375 46.707031 -143.382812 51.875 -140.46875 C 57.039062 -137.550781 60.859375 -133.394531 63.328125 -128 C 68.492188 -133.394531 74.613281 -137.550781 81.6875 -140.46875 C 88.757812 -143.382812 96.675781 -144.84375 105.4375 -144.84375 Z M 66.703125 -71.75 L 66.703125 -68.375 C 66.703125 -57.15625 69.394531 -48.625 74.78125 -42.78125 C 80.175781 -36.9375 86.914062 -34.015625 95 -34.015625 C 103.300781 -34.015625 109.976562 -37.101562 115.03125 -43.28125 C 120.082031 -49.457031 122.609375 -58.382812 122.609375 -70.0625 C 122.609375 -81.96875 120.082031 -91.007812 115.03125 -97.1875 C 109.976562 -103.363281 103.300781 -106.453125 95 -106.453125 C 86.914062 -106.453125 80.175781 -103.472656 74.78125 -97.515625 C 69.394531 -91.566406 66.703125 -82.976562 66.703125 -71.75 Z M 66.703125 -71.75 "/></g></g><g style="fill:#0e1d27;fill-opacity:1;"><g transform="translate(1653.95091, 1208.716434)"><path style="stroke:none" d="M 106.109375 -63.328125 C 85.222656 -62.878906 70.738281 -61.023438 62.65625 -57.765625 C 54.570312 -54.515625 50.53125 -49.632812 50.53125 -43.125 C 50.53125 -38.175781 52.101562 -34.578125 55.25 -32.328125 C 58.394531 -30.085938 62.660156 -28.96875 68.046875 -28.96875 C 77.929688 -28.96875 86.578125 -31.941406 93.984375 -37.890625 C 101.390625 -43.847656 105.429688 -52.328125 106.109375 -63.328125 Z M 108.46875 -14.140625 C 101.957031 -7.859375 94.039062 -3.203125 84.71875 -0.171875 C 75.394531 2.859375 65.234375 4.375 54.234375 4.375 C 39.859375 4.375 28.347656 0.613281 19.703125 -6.90625 C 11.054688 -14.425781 6.734375 -24.8125 6.734375 -38.0625 C 6.734375 -55.582031 14.476562 -68.550781 29.96875 -76.96875 C 45.46875 -85.394531 70.625 -90.054688 105.4375 -90.953125 C 102.738281 -104.648438 91.285156 -111.5 71.078125 -111.5 C 55.128906 -111.5 39.742188 -108.804688 24.921875 -103.421875 L 24.921875 -135.75 C 33.460938 -138.675781 42.28125 -140.921875 51.375 -142.484375 C 60.46875 -144.054688 70.289062 -144.84375 80.84375 -144.84375 C 102.851562 -144.84375 119.863281 -140.015625 131.875 -130.359375 C 143.894531 -120.703125 149.90625 -106.21875 149.90625 -86.90625 L 149.90625 -40.421875 C 149.90625 -36.148438 152.148438 -34.015625 156.640625 -34.015625 L 164.046875 -34.015625 L 164.046875 0.671875 C 160.679688 1.796875 157.03125 2.691406 153.09375 3.359375 C 149.164062 4.035156 144.285156 4.375 138.453125 4.375 C 131.484375 4.375 125.359375 2.75 120.078125 -0.5 C 114.804688 -3.757812 110.9375 -8.304688 108.46875 -14.140625 Z M 108.46875 -14.140625 "/></g></g><g style="fill:#0e1d27;fill-opacity:1;"><g transform="translate(1826.762065, 1208.716434)"><path style="stroke:none" d="M 110.484375 -141.140625 L 110.484375 -106.453125 L 90.28125 -106.453125 C 83.3125 -106.453125 77.640625 -104.316406 73.265625 -100.046875 C 68.890625 -95.773438 66.703125 -89.375 66.703125 -80.84375 L 66.703125 0 L 23.25 0 L 23.25 -100.046875 C 23.25 -104.316406 20.890625 -106.453125 16.171875 -106.453125 L 9.09375 -106.453125 L 9.09375 -141.140625 C 12.457031 -142.265625 16.101562 -143.160156 20.03125 -143.828125 C 23.96875 -144.503906 28.742188 -144.84375 34.359375 -144.84375 C 45.585938 -144.84375 54.234375 -140.914062 60.296875 -133.0625 C 68.609375 -140.914062 78.828125 -144.84375 90.953125 -144.84375 C 95.222656 -144.84375 98.925781 -144.503906 102.0625 -143.828125 C 105.207031 -143.160156 108.015625 -142.265625 110.484375 -141.140625 Z M 110.484375 -141.140625 "/></g></g><g style="fill:#0e1d27;fill-opacity:1;"><g transform="translate(1938.93769, 1208.716434)"><path style="stroke:none" d="M 85.5625 -106.453125 C 76.800781 -106.453125 69.613281 -103.304688 64 -97.015625 C 58.382812 -90.722656 55.578125 -81.738281 55.578125 -70.0625 C 55.578125 -58.382812 58.382812 -49.457031 64 -43.28125 C 69.613281 -37.101562 76.800781 -34.015625 85.5625 -34.015625 C 94.320312 -34.015625 101.507812 -37.101562 107.125 -43.28125 C 112.738281 -49.457031 115.546875 -58.382812 115.546875 -70.0625 C 115.546875 -81.738281 112.738281 -90.722656 107.125 -97.015625 C 101.507812 -103.304688 94.320312 -106.453125 85.5625 -106.453125 Z M 85.5625 -144.84375 C 99.9375 -144.84375 112.625 -141.695312 123.625 -135.40625 C 134.632812 -129.125 143.28125 -120.425781 149.5625 -109.3125 C 155.851562 -98.195312 159 -85.113281 159 -70.0625 C 159 -55.238281 155.851562 -42.210938 149.5625 -30.984375 C 143.28125 -19.753906 134.632812 -11.050781 123.625 -4.875 C 112.625 1.289062 99.9375 4.375 85.5625 4.375 C 71.414062 4.375 58.78125 1.289062 47.65625 -4.875 C 36.539062 -11.050781 27.835938 -19.753906 21.546875 -30.984375 C 15.265625 -42.210938 12.125 -55.238281 12.125 -70.0625 C 12.125 -85.113281 15.265625 -98.195312 21.546875 -109.3125 C 27.835938 -120.425781 36.539062 -129.125 47.65625 -135.40625 C 58.78125 -141.695312 71.414062 -144.84375 85.5625 -144.84375 Z M 85.5625 -144.84375 "/></g></g></g></svg>